<svg height="512" viewBox="0 0 128 128" width="512" xmlns="http://www.w3.org/2000/svg"><g><path d="m1.75 22.981h124.5v51.038h-124.5z" fill="#0d91bd"/><path d="m107.992 34.455h-87.984l-10.008-5.737v-5.737h108v5.737z" fill="#09607d"/><path d="m116.625 74.019h-105.25v-9a6 6 0 0 1 6-6h93.25a6 6 0 0 1 6 6z" fill="#beebfa"/><path d="m116.612 64.769h-105.224c0 .083-.013.165-.013.25v3.25h105.25v-3.25c0-.085-.009-.167-.013-.25z" fill="#9ee2f8"/><rect fill="#ffe477" height="6.563" rx="3.281" width="25" x="91.625" y="44.894"/><rect fill="#ffe477" height="6.563" rx="3.281" width="13.055" x="68.562" y="44.894"/><g fill="#beebfa"><path d="m17.062 103.831a1.75 1.75 0 0 1 -1.237-2.987 21.793 21.793 0 0 0 6.425-15.511v-1.689a1.75 1.75 0 0 1 3.5 0v1.689a25.266 25.266 0 0 1 -7.45 17.985 1.745 1.745 0 0 1 -1.238.513z"/><path d="m37.079 103.831a1.75 1.75 0 0 1 -1.238-2.987 21.793 21.793 0 0 0 6.425-15.511v-1.689a1.75 1.75 0 0 1 3.5 0v1.689a25.266 25.266 0 0 1 -7.45 17.985 1.745 1.745 0 0 1 -1.237.513z"/><path d="m110.937 103.831a1.745 1.745 0 0 1 -1.237-.513 25.266 25.266 0 0 1 -7.45-17.985v-1.689a1.75 1.75 0 0 1 3.5 0v1.689a21.793 21.793 0 0 0 6.425 15.511 1.75 1.75 0 0 1 -1.238 2.987z"/><path d="m90.921 103.831a1.745 1.745 0 0 1 -1.237-.513 25.266 25.266 0 0 1 -7.45-17.985v-1.689a1.75 1.75 0 0 1 3.5 0v1.689a21.793 21.793 0 0 0 6.425 15.511 1.75 1.75 0 0 1 -1.238 2.987z"/><path d="m64 106.769a1.751 1.751 0 0 1 -1.75-1.75v-21.375a1.75 1.75 0 0 1 3.5 0v21.375a1.751 1.751 0 0 1 -1.75 1.75z"/></g></g></svg>