<svg height="512" viewBox="0 0 128 128" width="512" xmlns="http://www.w3.org/2000/svg"><g><circle cx="64" cy="63.997" fill="#0d91bd" r="62.25"/><circle cx="64" cy="63.997" fill="#ebe1dc" r="54.25"/><g fill="#0d91bd"><path d="m64 18.005a1.751 1.751 0 0 0 -1.75 1.75v9.625a1.75 1.75 0 0 0 3.5 0v-9.625a1.751 1.751 0 0 0 -1.75-1.75z"/><path d="m88.478 41.269a1.743 1.743 0 0 0 1.237-.513l6.806-6.8a1.75 1.75 0 1 0 -2.475-2.475l-6.805 6.806a1.75 1.75 0 0 0 1.237 2.987z"/><path d="m38.285 87.238-6.806 6.805a1.75 1.75 0 1 0 2.475 2.475l6.805-6.806a1.749 1.749 0 1 0 -2.474-2.474z"/><path d="m108.242 62.247h-9.625a1.75 1.75 0 0 0 0 3.5h9.625a1.75 1.75 0 0 0 0-3.5z"/><path d="m29.383 62.247h-9.625a1.75 1.75 0 1 0 0 3.5h9.625a1.75 1.75 0 0 0 0-3.5z"/><path d="m89.715 87.238a1.749 1.749 0 0 0 -2.474 2.474l6.805 6.806a1.75 1.75 0 0 0 2.475-2.475z"/><path d="m33.954 31.476a1.75 1.75 0 1 0 -2.475 2.475l6.806 6.805a1.749 1.749 0 0 0 2.474-2.474z"/></g><path d="m83.191 103.856-7.63-7.63a34.2 34.2 0 0 1 -23.122 0l-7.63 7.63a44.205 44.205 0 0 0 38.382 0z" fill="#09607d"/><path d="m68.459 65.234-4.459-23.546-4.459 23.546a8.719 8.719 0 1 0 8.918 0z" fill="#ffb655"/></g></svg>