<svg height="512" viewBox="0 0 128 128" width="512" xmlns="http://www.w3.org/2000/svg"><g><path d="m113.929 46.115c-.138 0-.273.016-.41.02a24.34 24.34 0 0 0 -46.957-8.6 18.988 18.988 0 0 0 -30.552 8.624c-.292-.02-.583-.044-.88-.044a12.38 12.38 0 0 0 0 24.76h78.8a12.38 12.38 0 0 0 0-24.76z" fill="#0d91bd"/><path d="m43.938 50.413a1.752 1.752 0 0 1 -1.669-2.278 12.38 12.38 0 0 1 11.854-8.681 1.75 1.75 0 0 1 0 3.5 8.891 8.891 0 0 0 -8.516 6.235 1.752 1.752 0 0 1 -1.669 1.224z" fill="#09607d"/><path d="m105.206 48.018a1.751 1.751 0 0 1 -1.75-1.722 14.337 14.337 0 0 0 -14.271-14.046 1.75 1.75 0 0 1 0-3.5 17.853 17.853 0 0 1 17.771 17.49 1.751 1.751 0 0 1 -1.722 1.778z" fill="#09607d"/><path d="m8.312 59.286h-6.562v-8h6.562a2.562 2.562 0 0 0 2.563-2.562v-2.139a2.557 2.557 0 0 0 -1-2.028 3.764 3.764 0 0 1 -1.563-2.947v-.516a3.847 3.847 0 0 1 6.007-3.194 10.557 10.557 0 0 1 4.556 8.684v2.139a10.563 10.563 0 0 1 -10.563 10.563z" fill="#beebfa"/><path d="m46.934 105.814h-1.595a4 4 0 0 1 -4-4 4 4 0 0 1 4-4h1.831a3.7 3.7 0 0 0 3.659-2.869 3.638 3.638 0 0 0 -3.554-4.395h-45.525v-8h45.525a11.649 11.649 0 0 1 11.475 13.569 11.853 11.853 0 0 1 -11.816 9.695z" fill="#beebfa"/><path d="m10.875 74.918h-9.125v-8h9.125a4 4 0 0 1 4 4 4 4 0 0 1 -4 4z" fill="#9ee2f8"/></g></svg>