<svg height="512" viewBox="0 0 128 128" width="512" xmlns="http://www.w3.org/2000/svg"><g><path d="m111.419 63.5c-.167 0-.328.02-.494.025a29.275 29.275 0 0 0 -56.478-10.341 22.839 22.839 0 0 0 -36.747 10.369c-.351-.024-.7-.053-1.058-.053a14.891 14.891 0 1 0 0 29.781h94.778a14.891 14.891 0 0 0 0-29.781z" fill="#beebfa"/><g fill="#9ee2f8"><path d="m27.235 68.315a1.753 1.753 0 0 1 -1.67-2.278 14.536 14.536 0 0 1 13.919-10.193 1.75 1.75 0 0 1 0 3.5 11.049 11.049 0 0 0 -10.584 7.747 1.752 1.752 0 0 1 -1.665 1.224z"/><path d="m100.926 65.435a1.751 1.751 0 0 1 -1.749-1.723 17.6 17.6 0 0 0 -17.521-17.243 1.75 1.75 0 0 1 0-3.5 21.118 21.118 0 0 1 21.021 20.688 1.752 1.752 0 0 1 -1.722 1.778z"/></g></g></svg>