<svg height="512" viewBox="0 0 128 128" width="512" xmlns="http://www.w3.org/2000/svg"><g><path d="m64 1.747a62.25 62.25 0 1 0 62.25 62.253 62.25 62.25 0 0 0 -62.25-62.253zm-52.25 62.253a52.223 52.223 0 0 1 85.493-40.284l-73.524 73.524a52.011 52.011 0 0 1 -11.969-33.24zm52.25 52.247a52.012 52.012 0 0 1 -33.207-11.939l73.518-73.518a52.224 52.224 0 0 1 -40.311 85.457z" fill="#e57373"/><g fill="#beebfa"><path d="m75.768 44.5a19.5 19.5 0 0 0 -18.12 12.3 15.21 15.21 0 0 0 -24.473 6.9c-.234-.017-.467-.036-.7-.036a9.917 9.917 0 1 0 0 19.833h4.988l38.963-38.964c-.22-.008-.436-.033-.658-.033z"/><path d="m105.505 73.583a9.917 9.917 0 0 0 -9.916-9.916c-.111 0-.219.013-.329.017a19.461 19.461 0 0 0 -8.249-15.594l-35.411 35.41h43.989a9.917 9.917 0 0 0 9.916-9.917z"/></g></g></svg>