<svg height="512" viewBox="0 0 128 128" width="512" xmlns="http://www.w3.org/2000/svg"><g><path d="m96 14.125a12.375 12.375 0 0 0 -24.75 0v56.875h24.75z" fill="#9ee2f8"/><path d="m96 79.869v-8.869h-24.748v8.869a24.843 24.843 0 1 0 24.75 0z" fill="#0d91bd"/><circle cx="83.627" cy="101.407" fill="#09607d" r="16.843"/><path d="m88 14.125a4.375 4.375 0 1 0 -8.75 0v56.875h8.75z" fill="#ffe477"/><path d="m51.941 39.113 9.061 9.061 4.953-4.952-9.062-9.061h7.043l7.316 4.854v-16.714l-7.317 4.856h-7.043l9.063-9.063-4.953-4.952-9.061 9.061v-7.042l6.329-9.538-5.837-3.873-3.994 6.021-3.996-6.021-5.836 3.873 6.33 9.538v7.043l-9.062-9.062-4.953 4.952 9.063 9.063h-7.043l-9.539-6.33-3.873 5.836 6.021 3.996-6.021 3.994 3.873 5.836 9.538-6.328h7.043l-9.062 9.061 4.953 4.952 9.062-9.062v7.043l-6.33 9.538 5.836 3.874 3.996-6.021 3.994 6.021 5.837-3.874-6.329-9.537z" fill="#0d91bd"/></g></svg>