<svg height="512" viewBox="0 0 128 128" width="512" xmlns="http://www.w3.org/2000/svg"><g><circle cx="64" cy="63.997" fill="#0d91bd" r="62.25"/><path d="m116.25 64c0 .59-.01 1.17-.04 1.75a51.973 51.973 0 0 1 -14.07 33.92c-.79.85-1.62 1.68-2.47 2.47a51.973 51.973 0 0 1 -33.92 14.07c-.58.03-1.16.04-1.75.04s-1.17-.01-1.75-.04a51.973 51.973 0 0 1 -33.92-14.07c-.85-.79-1.68-1.62-2.47-2.47a51.973 51.973 0 0 1 -14.07-33.92c-.03-.58-.04-1.16-.04-1.75s.01-1.17.04-1.75a51.973 51.973 0 0 1 14.07-33.92c.79-.85 1.62-1.68 2.47-2.48a52.014 52.014 0 0 1 33.92-14.06c.58-.03 1.16-.04 1.75-.04s1.17.01 1.75.04a52.014 52.014 0 0 1 33.92 14.06c.85.8 1.68 1.63 2.47 2.48a51.973 51.973 0 0 1 14.07 33.92c.03.58.04 1.16.04 1.75z" fill="#ebe1dc"/><g fill="#bebebe"><path d="m65.75 11.79v8.59a1.75 1.75 0 0 1 -3.5 0v-8.59c.58-.03 1.16-.04 1.75-.04s1.17.01 1.75.04z"/><path d="m65.75 107.62v8.59c-.58.03-1.16.04-1.75.04s-1.17-.01-1.75-.04v-8.59a1.75 1.75 0 0 1 3.5 0z"/><path d="m102.14 28.33-6.06 6.06a1.75 1.75 0 0 1 -2.47-2.48l6.06-6.06c.85.8 1.68 1.63 2.47 2.48z"/><path d="m34.39 96.08-6.06 6.06c-.85-.79-1.68-1.62-2.47-2.47l6.06-6.06a1.747 1.747 0 0 1 2.47 2.47z"/><path d="m116.25 64c0 .59-.01 1.17-.04 1.75h-8.59a1.75 1.75 0 0 1 0-3.5h8.59c.03.58.04 1.16.04 1.75z"/><path d="m22.13 64a1.758 1.758 0 0 1 -1.75 1.75h-8.59c-.03-.58-.04-1.16-.04-1.75s.01-1.17.04-1.75h8.59a1.752 1.752 0 0 1 1.75 1.75z"/><path d="m102.14 99.67c-.79.85-1.62 1.68-2.47 2.47l-6.06-6.06a1.747 1.747 0 0 1 2.47-2.47z"/><path d="m34.39 34.39a1.75 1.75 0 0 1 -2.47 0l-6.06-6.06c.79-.85 1.62-1.68 2.47-2.48l6.06 6.06a1.744 1.744 0 0 1 0 2.48z"/></g><circle cx="64" cy="63.997" fill="#e57373" r="9.25"/><path d="m70.541 57.456a9.238 9.238 0 0 1 2.443 8.7l14.083-25.226-25.231 14.083a9.237 9.237 0 0 1 8.705 2.443z" fill="#ffb655"/><path d="m57.459 70.538a9.237 9.237 0 0 1 -2.443-8.7l-14.083 25.226 25.231-14.083a9.237 9.237 0 0 1 -8.705-2.443z" fill="#ffb655"/><g fill="#0d91bd"><path d="m69.626 44.063a1.752 1.752 0 0 1 -1.353-.639l-8.148-9.914v8.8a1.75 1.75 0 0 1 -3.5 0v-13.685a1.75 1.75 0 0 1 3.1-1.111l8.148 9.913v-8.8a1.75 1.75 0 0 1 3.5 0v13.686a1.752 1.752 0 0 1 -1.749 1.75z"/><path d="m65.625 101.119h-7.25a1.75 1.75 0 0 1 0-3.5h7.25a2.252 2.252 0 0 0 2.25-2.25v-1.094h-9.5a1.75 1.75 0 0 1 -1.75-1.75v-2.843a5.757 5.757 0 0 1 5.75-5.75h7.25a1.75 1.75 0 0 1 0 3.5h-7.25a2.252 2.252 0 0 0 -2.25 2.25v1.093h9.5a1.751 1.751 0 0 1 1.75 1.75v2.844a5.757 5.757 0 0 1 -5.75 5.75z"/></g></g></svg>