<svg height="512" viewBox="0 0 128 128" width="512" xmlns="http://www.w3.org/2000/svg"><g><circle cx="91.172" cy="64" fill="#ebe1dc" r="35.078"/><path d="m56.094 64a35.085 35.085 0 0 1 25.574-33.764h-10.477a18.6 18.6 0 0 1 -13.154-5.449l-8.537-8.537-8.537 8.537a18.6 18.6 0 0 1 -13.154 5.449h-12.073v12.073a18.6 18.6 0 0 1 -5.449 13.154l-8.537 8.537 8.537 8.537a18.6 18.6 0 0 1 5.449 13.154v12.073h12.073a18.6 18.6 0 0 1 13.154 5.449l8.537 8.537 8.537-8.537a18.6 18.6 0 0 1 13.154-5.449h10.477a35.085 35.085 0 0 1 -25.574-33.764z" fill="#ffb655"/><path d="m56.094 64a34.9 34.9 0 0 1 5.412-18.71 22.235 22.235 0 1 0 0 37.42 34.9 34.9 0 0 1 -5.412-18.71z" fill="#ffe477"/><g fill="#c8beb9"><path d="m101.719 45.078a4.454 4.454 0 1 1 -4.453-4.453 4.453 4.453 0 0 1 4.453 4.453z"/><circle cx="74.97" cy="75.098" r="4.453"/><circle cx="109.734" cy="64.672" r="7.172"/></g></g></svg>