<svg height="512" viewBox="0 0 128 128" width="512" xmlns="http://www.w3.org/2000/svg"><g><path d="m60.459 14.125a12.375 12.375 0 0 0 -24.75 0v56.875h24.75z" fill="#beebfa"/><path d="m60.459 79.869v-8.869h-24.75v8.869a24.843 24.843 0 1 0 24.75 0z" fill="#0d91bd"/><circle cx="48.084" cy="101.407" fill="#09607d" r="16.843"/><path d="m52.459 14.125a4.375 4.375 0 0 0 -8.75 0v56.875h8.75z" fill="#ffe477"/><circle cx="72.054" cy="6.747" fill="#e57373" r="5"/><path d="m86.8 24.759h17.963v-8h-17.963a12.013 12.013 0 0 0 -12 12v29h8v-16.784h21.963v-8h-21.963v-4.216a4 4 0 0 1 4-4z" fill="#09607d"/></g></svg>