<svg height="512" viewBox="0 0 128 128" width="512" xmlns="http://www.w3.org/2000/svg"><g><circle cx="64" cy="50.116" fill="#0d91bd" r="48.362" transform="matrix(1 -.011 .011 1 -.56 .724)"/><circle cx="64" cy="50.116" fill="#ebe1dc" r="40.362" transform="matrix(.951 -.31 .31 .951 -12.374 22.285)"/><circle cx="64" cy="50.116" fill="#ffb655" r="7.563"/><g fill="#0d91bd"><path d="m64 42.553a7.521 7.521 0 0 1 4.329 1.366 16.929 16.929 0 0 1 4.476-7.971l2.355-2.355-7.314-16.523h-7.692v26.542a7.512 7.512 0 0 1 3.846-1.059z"/><path d="m56.437 50.116c0-.226.014-.448.033-.668a16.916 16.916 0 0 1 -9.143.126l-3.216-.862-10.652 14.6 3.841 6.658 22.986-13.27a7.558 7.558 0 0 1 -3.849-6.584z"/><path d="m71.559 50.04v.076a7.558 7.558 0 0 1 -4.379 6.854 16.906 16.906 0 0 1 4.683 7.856l.862 3.217 17.975 1.927 3.845-6.662z"/></g><path d="m28.811 111.5h70.378a7.374 7.374 0 0 1 7.374 7.374 7.374 7.374 0 0 1 -7.374 7.374h-70.378a7.373 7.373 0 0 1 -7.373-7.373 7.374 7.374 0 0 1 7.374-7.374z" fill="#ffb655"/><path d="m64 98.479a48.117 48.117 0 0 1 -16.731-2.987l-4.644 16.008h42.75l-4.644-16.008a48.117 48.117 0 0 1 -16.731 2.987z" fill="#09607d"/><path d="m83.45 118.874h-38.9l-10.008-7.374h58.916z" fill="#0d91bd"/></g></svg>