<svg height="512" viewBox="0 0 128 128" width="512" xmlns="http://www.w3.org/2000/svg"><g><path d="m126.25 83.452c-10.376 0-10.376 6-20.752 6s-10.377-6-20.753-6-10.375 6-20.749 6-10.375-6-20.749-6-10.374 6-20.749 6-10.374-6-20.748-6v-16.394c10.374 0 10.374 6 20.748 6s10.375-6 20.749-6 10.374 6 20.749 6 10.374-6 20.749-6 10.376 6 20.753 6 10.376-6 20.752-6z" fill="#beebfa"/><path d="m126.25 99.845c-10.376 0-10.376 6-20.752 6s-10.377-6-20.753-6-10.375 6-20.749 6-10.375-6-20.749-6-10.374 6-20.749 6-10.374-6-20.748-6v-16.393c10.374 0 10.374 6 20.748 6s10.375-6 20.749-6 10.374 6 20.749 6 10.374-6 20.749-6 10.376 6 20.753 6 10.376-6 20.752-6z" fill="#9ee2f8"/><path d="m1.75 126.247v-26.4c10.374 0 10.374 6 20.748 6s10.375-6 20.749-6 10.374 6 20.749 6 10.374-6 20.749-6 10.376 6 20.753 6 10.376-6 20.752-6v26.4z" fill="#0d91bd"/><path d="m43.247 67.058c10.374 0 10.374 6 20.749 6s10.374-6 20.749-6c9.239 0 10.258 4.753 17.692 5.8v-27.6h-76.875v27.6c7.43-1.049 8.45-5.8 17.685-5.8z" fill="#09607d"/><path d="m43.247 67.058a17.451 17.451 0 0 1 9.628 2.572v-14.372h-17.313v13.358a17.364 17.364 0 0 1 7.685-1.558z" fill="#ffe477"/><path d="m112.152 45.258h-96.304v-7.482l48.152-36.029 48.152 36.029z" fill="#0d91bd"/></g></svg>