<svg height="512" viewBox="0 0 128 128" width="512" xmlns="http://www.w3.org/2000/svg"><g><path d="m126.28 78.39a13.558 13.558 0 0 1 -.07 1.43 14.464 14.464 0 0 1 -.77 3.5 14.892 14.892 0 0 1 -14.05 9.96h-94.78a14.892 14.892 0 0 1 -14.05-9.96 14.464 14.464 0 0 1 -.77-3.5 13.558 13.558 0 0 1 -.07-1.43 14.727 14.727 0 0 1 1.64-6.78 14.419 14.419 0 0 1 2.48-3.5 14.854 14.854 0 0 1 10.77-4.61c.36 0 .71.03 1.06.05a22.887 22.887 0 0 1 3.77-7.16 22.834 22.834 0 0 1 32.98-3.21 28.474 28.474 0 0 1 2.58-5 29.26 29.26 0 0 1 46.62-3.5 28.14 28.14 0 0 1 2.64 3.5 28.468 28.468 0 0 1 3.64 8.21 27.117 27.117 0 0 1 .71 3.5 28.974 28.974 0 0 1 .29 3.63c.16 0 .32-.02.49-.02a14.854 14.854 0 0 1 10.77 4.61 14.419 14.419 0 0 1 2.48 3.5 14.727 14.727 0 0 1 1.64 6.78z" fill="#ebe1dc"/><g fill="#c8beb9"><path d="m106.26 48.18h-49.26a28.9 28.9 0 0 1 2.64-3.5h43.98a28.14 28.14 0 0 1 2.64 3.5z"/><path d="m110.61 59.89h-91.42a22.437 22.437 0 0 1 2.25-3.5h88.46a27.117 27.117 0 0 1 .71 3.5z"/><path d="m124.64 71.61h-121.28a14.419 14.419 0 0 1 2.48-3.5h116.32a14.419 14.419 0 0 1 2.48 3.5z"/><path d="m126.21 79.82a14.464 14.464 0 0 1 -.77 3.5h-122.88a14.464 14.464 0 0 1 -.77-3.5z"/></g></g></svg>