<svg height="512" viewBox="0 0 128 128" width="512" xmlns="http://www.w3.org/2000/svg"><g><path d="m111.419 39.655c-.167 0-.328.02-.494.025a29.275 29.275 0 0 0 -56.478-10.341 22.839 22.839 0 0 0 -36.747 10.37c-.351-.025-.7-.054-1.058-.054a14.891 14.891 0 1 0 0 29.781h94.778a14.891 14.891 0 0 0 0-29.781z" fill="#beebfa"/><path d="m27.235 44.469a1.75 1.75 0 0 1 -1.67-2.277 14.537 14.537 0 0 1 13.919-10.192 1.75 1.75 0 0 1 0 3.5 11.049 11.049 0 0 0 -10.584 7.745 1.75 1.75 0 0 1 -1.665 1.224z" fill="#9ee2f8"/><path d="m100.926 41.59a1.75 1.75 0 0 1 -1.749-1.722 17.6 17.6 0 0 0 -17.521-17.244 1.75 1.75 0 0 1 0-3.5 21.117 21.117 0 0 1 21.021 20.687 1.752 1.752 0 0 1 -1.722 1.779z" fill="#9ee2f8"/><g fill="#0d91bd"><g><path d="m28.707 88.498-4.75 4.003-4.75-4.003v-6.498l4.75-4.003 4.75 4.003z"/><path d="m52.066 88.498-4.75 4.003-4.75-4.003v-6.498l4.75-4.003 4.75 4.003z"/><path d="m75.426 88.498-4.75 4.003-4.75-4.003v-6.498l4.75-4.003 4.75 4.003z"/><path d="m98.785 88.498-4.75 4.003-4.75-4.003v-6.498l4.75-4.003 4.75 4.003z"/></g><g><path d="m38.715 113.123-4.75 4.003-4.75-4.003v-6.498l4.75-4.003 4.75 4.003z"/><path d="m62.074 113.123-4.75 4.003-4.75-4.003v-6.498l4.75-4.003 4.75 4.003z"/><path d="m85.434 113.123-4.75 4.003-4.75-4.003v-6.498l4.75-4.003 4.75 4.003z"/><path d="m108.793 113.123-4.75 4.003-4.75-4.003v-6.498l4.75-4.003 4.75 4.003z"/></g></g></g></svg>