<svg height="512" viewBox="0 0 128 128" width="512" xmlns="http://www.w3.org/2000/svg"><g><path d="m100.388 89.2c-.15 0-.3.017-.444.022a26.331 26.331 0 0 0 -50.8-9.3 20.542 20.542 0 0 0 -33.052 9.327c-.315-.022-.63-.048-.951-.048a13.393 13.393 0 0 0 0 26.786h85.245a13.393 13.393 0 0 0 0-26.786z" fill="#0d91bd"/><path d="m24.671 93.7a1.75 1.75 0 0 1 -1.671-2.275 13.25 13.25 0 0 1 12.687-9.291 1.75 1.75 0 1 1 0 3.5 9.761 9.761 0 0 0 -9.349 6.845 1.751 1.751 0 0 1 -1.667 1.221z" fill="#09607d"/><path d="m90.95 91.112a1.75 1.75 0 0 1 -1.75-1.722 15.653 15.653 0 0 0 -15.581-15.336 1.75 1.75 0 0 1 0-3.5 19.169 19.169 0 0 1 19.081 18.78 1.752 1.752 0 0 1 -1.723 1.778z" fill="#09607d"/><path d="m110.132 61.658a37.286 37.286 0 0 1 -35.175-49.64 37.281 37.281 0 0 0 -14.533 54.839 26.321 26.321 0 0 1 38.421 15.251 37.342 37.342 0 0 0 27.405-24.108 37.127 37.127 0 0 1 -16.118 3.658z" fill="#ffb655"/><path d="m63.957 58.449a1.751 1.751 0 0 1 -1.621-1.088 30.936 30.936 0 0 1 1.553-26.623 1.75 1.75 0 0 1 3.068 1.685 27.432 27.432 0 0 0 -1.381 23.613 1.752 1.752 0 0 1 -1.619 2.413z" fill="#ffe477"/></g></svg>