<svg height="512" viewBox="0 0 128 128" width="512" xmlns="http://www.w3.org/2000/svg"><g><path d="m108.017 95.766v-7.323a15 15 0 0 1 4.394-10.607l13.839-13.836-13.839-13.842a15 15 0 0 1 -4.394-10.607v-19.571h-19.571a15 15 0 0 1 -10.607-4.394l-13.839-13.839-13.839 13.839a15 15 0 0 1 -10.607 4.394h-19.571v19.571a15 15 0 0 1 -4.394 10.607l-13.839 13.842 13.839 13.836a15 15 0 0 1 4.394 10.607v19.571h19.571a15 15 0 0 1 10.607 4.394l13.839 13.839 31.125-52.034z" fill="#ffb655"/><path d="m83.215 94.124 11.91-19.911 1.966 3.287a35.771 35.771 0 1 0 -13.876 16.624z" fill="#ffe477"/><path d="m89.738 65.747a1.749 1.749 0 0 1 -1.75-1.747 24.016 24.016 0 0 0 -23.988-23.992 1.75 1.75 0 0 1 0-3.5 27.52 27.52 0 0 1 27.488 27.492 1.749 1.749 0 0 1 -1.75 1.747z" fill="#ffb655"/><path d="m126.25 126.247h-62.25l31.125-52.034z" fill="#e57373"/><g fill="#ffb655"><path d="m95.125 111.844a1.749 1.749 0 0 0 -1.75 1.75v2.645a1.75 1.75 0 0 0 3.5 0v-2.645a1.749 1.749 0 0 0 -1.75-1.75z"/><path d="m95.125 90.375a1.749 1.749 0 0 0 -1.75 1.75v14.463a1.75 1.75 0 0 0 3.5 0v-14.463a1.749 1.749 0 0 0 -1.75-1.75z"/></g></g></svg>