<svg height="512" viewBox="0 0 128 128" width="512" xmlns="http://www.w3.org/2000/svg"><g><path d="m126.25 83.452c-10.376 0-10.376 6-20.752 6s-10.377-6-20.753-6-10.375 6-20.749 6-10.375-6-20.749-6-10.374 6-20.749 6-10.374-6-20.748-6v-16.394c10.374 0 10.374 6 20.748 6s10.375-6 20.749-6 10.374 6 20.749 6 10.374-6 20.749-6 10.376 6 20.753 6 10.376-6 20.752-6z" fill="#beebfa"/><path d="m126.25 99.845c-10.376 0-10.376 6-20.752 6s-10.377-6-20.753-6-10.375 6-20.749 6-10.375-6-20.749-6-10.374 6-20.749 6-10.374-6-20.748-6v-16.393c10.374 0 10.374 6 20.748 6s10.375-6 20.749-6 10.374 6 20.749 6 10.374-6 20.749-6 10.376 6 20.753 6 10.376-6 20.752-6z" fill="#9ee2f8"/><path d="m1.75 126.247v-26.4c10.374 0 10.374 6 20.748 6s10.375-6 20.749-6 10.374 6 20.749 6 10.374-6 20.749-6 10.376 6 20.753 6 10.376-6 20.752-6v26.4z" fill="#0d91bd"/><path d="m39.464 27.783 24.598 24.598 24.599-24.598-7.072-7.072-12.527 12.527v-31.491h-10v31.491l-12.526-12.527z" fill="#09607d"/></g></svg>