<svg height="512" viewBox="0 0 128 128" width="512" xmlns="http://www.w3.org/2000/svg"><g><path d="m1.75 8.686h124.5v79.008h-124.5z" fill="#0d91bd"/><path d="m11.75 18.686h104.5v59.008h-104.5z" fill="#beebfa"/><path d="m64.222 58.966c-.064 0-.126.008-.189.01a11.262 11.262 0 0 0 -21.727-3.976 8.786 8.786 0 0 0 -14.137 3.989c-.135-.01-.269-.021-.407-.021a5.729 5.729 0 0 0 0 11.457h36.46a5.729 5.729 0 1 0 0-11.457z" fill="#09607d"/><path d="m68.39 47.188a15.947 15.947 0 0 1 -15.045-21.231 15.947 15.947 0 0 0 -6.216 23.455 11.258 11.258 0 0 1 16.434 6.523 15.974 15.974 0 0 0 11.721-10.311 15.885 15.885 0 0 1 -6.894 1.564z" fill="#ffb655"/><g fill="#09607d"><path d="m106.25 38h-22.938a1.75 1.75 0 0 1 0-3.5h22.938a1.75 1.75 0 0 1 0 3.5z"/><path d="m103 45.96h-16.438a1.75 1.75 0 0 1 0-3.5h16.438a1.75 1.75 0 0 1 0 3.5z"/><path d="m106.25 53.919h-22.938a1.75 1.75 0 0 1 0-3.5h22.938a1.75 1.75 0 0 1 0 3.5z"/><path d="m103 61.877h-16.438a1.75 1.75 0 0 1 0-3.5h16.438a1.75 1.75 0 0 1 0 3.5z"/><path d="m45.656 87.694h36.687v19.5h-36.687z"/></g><path d="m95.7 119.314h-63.4a6.06 6.06 0 0 1 -6.06-6.06 6.06 6.06 0 0 1 6.06-6.06h63.4a6.06 6.06 0 0 1 6.06 6.06 6.06 6.06 0 0 1 -6.06 6.06z" fill="#0d91bd"/></g></svg>