<?xml version="1.0"?>
<svg xmlns="http://www.w3.org/2000/svg" width="512" height="512" viewBox="0 0 128 128"><g><path d="M113.563,33.343a15.052,15.052,0,0,1-4.6-.725l-4.521-1.452a10.7,10.7,0,0,0-6.545,0l-3.414,1.1a18.659,18.659,0,0,1-11.415,0l-3.411-1.1a10.7,10.7,0,0,0-6.546,0L68.6,32.615a14.944,14.944,0,0,1-9.214,0l-4.505-1.448a10.71,10.71,0,0,0-6.55,0l-3.405,1.094a18.677,18.677,0,0,1-11.423,0l-3.4-1.094a10.7,10.7,0,0,0-6.547,0l-3.409,1.1a18.664,18.664,0,0,1-11.419,0L4.256,30.827a3.608,3.608,0,0,1-2.332-4.54l.228-.709a3.609,3.609,0,0,1,4.54-2.332l4.463,1.434a10.7,10.7,0,0,0,6.547,0l3.409-1.095a18.656,18.656,0,0,1,11.419,0l3.405,1.094a10.707,10.707,0,0,0,6.549,0l3.406-1.094a18.672,18.672,0,0,1,11.424,0l3.4,1.093a10.707,10.707,0,0,0,6.549,0l3.409-1.1a18.662,18.662,0,0,1,11.416,0L85.5,24.68a10.71,10.71,0,0,0,6.55,0l3.411-1.1a18.663,18.663,0,0,1,11.414,0l3.418,1.1a10.7,10.7,0,0,0,6.546,0l4.472-1.436a3.611,3.611,0,0,1,4.541,2.334l.227.708a3.609,3.609,0,0,1-2.333,4.54l-5.576,1.791A15.061,15.061,0,0,1,113.563,33.343Z" fill="#beebfa"/><path d="M113.563,51.335a15.057,15.057,0,0,1-4.6-.725L103.334,48.8A7.042,7.042,0,0,0,99,48.8l-4.513,1.45a18.669,18.669,0,0,1-11.423,0l-3.407-1.094a10.7,10.7,0,0,0-6.546,0L69.7,50.252a18.668,18.668,0,0,1-11.425,0l-3.4-1.092a10.707,10.707,0,0,0-6.549,0l-3.405,1.095a18.673,18.673,0,0,1-11.422,0l-3.405-1.094a10.7,10.7,0,0,0-6.55,0l-4.508,1.449a15.037,15.037,0,0,1-4.493.725,3.61,3.61,0,0,1-3.436-4.722l.241-.751A3.544,3.544,0,0,1,14.6,43.367a7.154,7.154,0,0,0,2-.34l4.508-1.449a18.663,18.663,0,0,1,11.421,0l3.406,1.094a10.71,10.71,0,0,0,6.55,0l3.405-1.094a18.672,18.672,0,0,1,11.424,0l3.4,1.093a10.71,10.71,0,0,0,6.55,0l3.41-1.095a18.662,18.662,0,0,1,11.416,0l3.411,1.1a10.7,10.7,0,0,0,6.547,0l3.409-1.095a18.667,18.667,0,0,1,11.42,0l4.518,1.451a7.1,7.1,0,0,0,2,.339,3.546,3.546,0,0,1,3.249,2.5l.259.806a3.553,3.553,0,0,1-3.292,4.667Z" fill="#9ee2f8"/><path d="M113.563,69.327a15.023,15.023,0,0,1-4.6-.726l-4.521-1.452a10.7,10.7,0,0,0-6.545,0l-3.414,1.1a18.666,18.666,0,0,1-11.415,0l-3.411-1.1a10.705,10.705,0,0,0-6.546,0L68.6,68.6a14.958,14.958,0,0,1-9.214,0l-4.505-1.448a10.7,10.7,0,0,0-6.55,0l-3.405,1.094a18.669,18.669,0,0,1-11.423,0l-3.4-1.094a10.7,10.7,0,0,0-6.547,0l-3.409,1.095a18.664,18.664,0,0,1-11.419,0L4.256,66.811A3.61,3.61,0,0,1,1.924,62.27l.228-.708a3.608,3.608,0,0,1,4.54-2.332l4.463,1.434a10.7,10.7,0,0,0,6.547,0l3.409-1.095a18.664,18.664,0,0,1,11.419,0l3.405,1.094a10.7,10.7,0,0,0,6.55,0l3.406-1.095a18.663,18.663,0,0,1,11.421,0l3.4,1.093a10.71,10.71,0,0,0,6.55,0l3.409-1.095a18.654,18.654,0,0,1,11.416,0l3.411,1.1a10.7,10.7,0,0,0,6.547,0l3.409-1.095a18.674,18.674,0,0,1,11.42,0l3.415,1.1a10.7,10.7,0,0,0,6.546,0l4.472-1.436a3.61,3.61,0,0,1,4.541,2.333l.227.709a3.608,3.608,0,0,1-2.333,4.539L118.167,68.6A15.032,15.032,0,0,1,113.563,69.327Z" fill="#beebfa"/><path d="M113.563,87.318a15.026,15.026,0,0,1-4.6-.725l-4.522-1.452a10.705,10.705,0,0,0-6.546,0l-3.408,1.095a18.667,18.667,0,0,1-11.42,0l-3.413-1.1a10.694,10.694,0,0,0-6.545,0L69.7,86.236a18.662,18.662,0,0,1-11.423,0l-3.4-1.093a10.7,10.7,0,0,0-6.55,0l-3.405,1.094a18.673,18.673,0,0,1-11.422,0l-3.405-1.094a10.71,10.71,0,0,0-6.55,0l-4.508,1.449a15.07,15.07,0,0,1-4.493.726A3.61,3.61,0,0,1,11.107,82.6l.241-.752A3.546,3.546,0,0,1,14.6,79.35a7.118,7.118,0,0,0,2-.34l4.508-1.449a18.673,18.673,0,0,1,11.422,0l3.405,1.094a10.71,10.71,0,0,0,6.55,0l3.405-1.094a18.669,18.669,0,0,1,11.423,0l3.4,1.093a10.71,10.71,0,0,0,6.55,0l3.4-1.093a18.68,18.68,0,0,1,11.424,0l3.41,1.095a10.707,10.707,0,0,0,6.549,0l3.406-1.094a18.671,18.671,0,0,1,11.419,0l4.52,1.451a7.134,7.134,0,0,0,2,.34,3.545,3.545,0,0,1,3.249,2.494l.259.806a3.553,3.553,0,0,1-3.292,4.667Z" fill="#9ee2f8"/><path d="M113.563,105.31a15.052,15.052,0,0,1-4.6-.725l-4.52-1.452a10.7,10.7,0,0,0-6.547,0l-3.413,1.1a18.659,18.659,0,0,1-11.415,0l-3.411-1.1a10.7,10.7,0,0,0-6.546,0L68.6,104.582a14.958,14.958,0,0,1-9.214,0l-4.506-1.448a10.707,10.707,0,0,0-6.549,0l-3.405,1.094a18.677,18.677,0,0,1-11.423,0l-3.4-1.094a10.709,10.709,0,0,0-6.552,0l-3.406,1.094a18.664,18.664,0,0,1-11.419,0l-4.463-1.434a3.609,3.609,0,0,1-2.332-4.54l.228-.709a3.609,3.609,0,0,1,4.54-2.332l4.463,1.434a10.7,10.7,0,0,0,6.547,0l3.409-1.095a18.656,18.656,0,0,1,11.419,0l3.405,1.094a10.707,10.707,0,0,0,6.549,0l3.406-1.094a18.672,18.672,0,0,1,11.424,0l3.4,1.092a10.7,10.7,0,0,0,6.549,0l3.409-1.1a18.669,18.669,0,0,1,11.416,0l3.409,1.1a10.71,10.71,0,0,0,6.55,0l3.411-1.1a18.663,18.663,0,0,1,11.414,0l3.418,1.1a10.7,10.7,0,0,0,6.546,0l4.472-1.436a3.61,3.61,0,0,1,4.541,2.334l.227.708a3.609,3.609,0,0,1-2.333,4.54l-5.576,1.791A15.061,15.061,0,0,1,113.563,105.31Z" fill="#beebfa"/></g></svg>
