<svg height="512" viewBox="0 0 128 128" width="512" xmlns="http://www.w3.org/2000/svg"><g><circle cx="64" cy="64" fill="#ebe1dc" r="62.25"/><g fill="#c8beb9"><path d="m11.75 65.75a1.75 1.75 0 0 1 -1.75-1.75 53.519 53.519 0 0 1 10.57-32.059 1.75 1.75 0 0 1 2.813 2.082 50.043 50.043 0 0 0 -9.883 29.977 1.75 1.75 0 0 1 -1.75 1.75z"/><circle cx="74.814" cy="30.421" r="7.903" transform="matrix(.249 -.969 .969 .249 26.756 95.328)"/><circle cx="32.95" cy="85.993" r="10.2"/><circle cx="98.982" cy="67.233" r="14.768" transform="matrix(.205 -.979 .979 .205 12.923 150.369)"/></g></g></svg>