<svg height="512" viewBox="0 0 128 128" width="512" xmlns="http://www.w3.org/2000/svg"><g><path d="m52.02 86.108c-.077 0-.151.009-.226.011a13.42 13.42 0 0 0 -25.889-4.74 10.47 10.47 0 0 0 -16.845 4.753c-.16-.011-.321-.024-.484-.024a6.826 6.826 0 1 0 0 13.651h43.444a6.826 6.826 0 0 0 0-13.651z" fill="#beebfa"/><path d="m75.98 86.108c.077 0 .151.009.226.011a13.42 13.42 0 0 1 25.889-4.74 10.47 10.47 0 0 1 16.845 4.753c.16-.011.321-.024.484-.024a6.826 6.826 0 1 1 0 13.651h-43.444a6.826 6.826 0 0 1 0-13.651z" fill="#beebfa"/><path d="m36.925 73a32.21 32.21 0 0 1 54.15 0 13.425 13.425 0 0 1 11.02 8.376 10.525 10.525 0 0 1 2.744-1.71 42.248 42.248 0 0 0 -81.678 0 10.525 10.525 0 0 1 2.744 1.71 13.425 13.425 0 0 1 11.02-8.376z" fill="#e57373"/><path d="m47.038 76.1a22.238 22.238 0 0 1 33.924 0 13.184 13.184 0 0 1 10.113-3.1 32.21 32.21 0 0 0 -54.15 0 13.184 13.184 0 0 1 10.113 3.1z" fill="#0d91bd"/><path d="m64 38.241a52.327 52.327 0 0 0 -51.375 42.784 10.411 10.411 0 0 1 10.536-1.356 42.248 42.248 0 0 1 81.678 0 10.411 10.411 0 0 1 10.536 1.356 52.327 52.327 0 0 0 -51.375-42.784z" fill="#ffe477"/><path d="m8.576 86.108c.163 0 .324.013.484.024a10.488 10.488 0 0 1 3.565-5.107 52.238 52.238 0 0 1 102.75 0 10.488 10.488 0 0 1 3.565 5.107c.16-.011.321-.024.484-.024a6.825 6.825 0 0 1 6.783 6.077c.015-.565.043-1.126.043-1.694a62.25 62.25 0 0 0 -124.5 0c0 .568.028 1.129.043 1.694a6.825 6.825 0 0 1 6.783-6.077z" fill="#ffb655"/></g></svg>