<svg height="512" viewBox="0 0 128 128" width="512" xmlns="http://www.w3.org/2000/svg"><g><path d="m108.79 15.005v10.9c0 .14 0 .27-.01.41a89.711 89.711 0 0 1 -11.12 1.41 1.747 1.747 0 0 0 .12 3.49h.13a100.241 100.241 0 0 0 10.53-1.24 23.9 23.9 0 0 1 -6.66 12.86l-2.24 2.24-2.46 2.46-.75.75c-.37.23-.73.46-1.08.71a24.248 24.248 0 0 0 -5.13 4.76c-3.29.23-7.06.38-11.29.38-1.88 0-3.77-.03-5.61-.09a1.751 1.751 0 0 0 -.12 3.5c1.88.06 3.81.09 5.73.09 1.55 0 4.9-.03 8.87-.23a26.121 26.121 0 0 0 -2.78 16.8l3.06 18.3-1.61 1.12-10.87-4.26-6.85-8.88c-2.61-3.37-5.38-6.61-8.18-9.82-2.73-3.13-6.26-9.23-1.06-16.35a16.507 16.507 0 0 0 1.63-15.5c6.05.55 11.86.6 14.05.6 1.78 0 3.57-.02 5.32-.08a1.738 1.738 0 0 0 1.69-1.8 1.766 1.766 0 0 0 -1.8-1.7c-1.71.06-3.46.08-5.21.08a141.577 141.577 0 0 1 -16.2-.84 10.908 10.908 0 0 0 -.77-.91l-3.8-4.04-1.1-1.18a14.773 14.773 0 0 1 -1.34-1.64 16.018 16.018 0 0 1 -3-9.34v-2.96c0 2.9 13.41 5.25 29.95 5.25s29.96-2.35 29.96-5.25z" fill="#d7d7d7"/><path d="m82.1 37.535a1.738 1.738 0 0 1 -1.69 1.8c-1.75.06-3.54.08-5.32.08-2.19 0-8-.05-14.05-.6a14.788 14.788 0 0 0 -2.15-3.74 141.577 141.577 0 0 0 16.2.84c1.75 0 3.5-.02 5.21-.08a1.766 1.766 0 0 1 1.8 1.7z" fill="#d7d7d7"/><path d="m90.12 53.755a24.308 24.308 0 0 0 -2.42 3.65c-3.97.2-7.32.23-8.87.23-1.92 0-3.85-.03-5.73-.09a1.751 1.751 0 0 1 .12-3.5c1.84.06 3.73.09 5.61.09 4.23 0 8-.15 11.29-.38z" fill="#d7d7d7"/><path d="m108.78 26.315a22.343 22.343 0 0 1 -.34 3.66 100.241 100.241 0 0 1 -10.53 1.24h-.13a1.747 1.747 0 0 1 -.12-3.49 89.711 89.711 0 0 0 11.12-1.41z" fill="#d7d7d7"/><g fill="#bebebe"><ellipse cx="78.833" cy="15.006" rx="29.958" ry="5.248"/><path d="m73.889 64.455h-.052c-4.027-.117-7.825-.372-11.289-.759a1.75 1.75 0 0 1 .389-3.479c3.369.377 7.07.625 11 .74a1.75 1.75 0 0 1 -.05 3.5z"/><path d="m78.833 48.446c-2.478 0-4.943-.052-7.328-.156a1.75 1.75 0 0 1 .152-3.5c4.374.19 9.064.2 13.459.037a1.73 1.73 0 0 1 1.815 1.683 1.749 1.749 0 0 1 -1.683 1.814c-2.093.082-4.248.122-6.415.122z"/><path d="m76.633 32.266h-.033c-4.515-.075-8.78-.321-12.676-.731a1.75 1.75 0 0 1 .366-3.48c3.794.4 7.955.638 12.369.711a1.75 1.75 0 0 1 -.029 3.5z"/><path d="m99.54 45.075-2.46 2.46a1.757 1.757 0 0 0 1.27.89c5.34.82 7.5 1.74 8.32 2.23-1.68 1-7.25 2.42-16.55 3.1-3.29.23-7.06.38-11.29.38-1.88 0-3.77-.03-5.61-.09a1.751 1.751 0 0 0 -.12 3.5c1.88.06 3.81.09 5.73.09 1.55 0 4.9-.03 8.87-.23 9.61-.51 22.84-2.06 22.84-6.77 0-1.76-1.26-3.98-11-5.56z"/><path d="m82.1 37.535a1.738 1.738 0 0 1 -1.69 1.8c-1.75.06-3.54.08-5.32.08-2.19 0-8-.05-14.05-.6-8.58-.76-17.66-2.5-17.66-6.4 0-2.3 2.63-3.9 8.5-5.11a14.773 14.773 0 0 0 1.34 1.64l1.1 1.18a1.69 1.69 0 0 1 -.86.44c-3.82.72-5.51 1.45-6.21 1.87 1.36.81 5.27 1.9 11.64 2.64a141.577 141.577 0 0 0 16.2.84c1.75 0 3.5-.02 5.21-.08a1.766 1.766 0 0 1 1.8 1.7z"/><path d="m109.13 19.405a2.041 2.041 0 0 0 -.34-.03v3.53a18.982 18.982 0 0 1 5.45 1.71 20.213 20.213 0 0 1 -5.46 1.7 89.711 89.711 0 0 1 -11.12 1.41 1.747 1.747 0 0 0 .12 3.49h.13a100.241 100.241 0 0 0 10.53-1.24c9.68-1.78 9.68-4.37 9.68-5.37 0-2.37-2.77-3.98-8.99-5.2z"/></g><path d="m86.374 93.622 17.864-12.476a7.912 7.912 0 0 1 8.95-.075l13.062 8.8v19.375z" fill="#ffe477"/><path d="m48.411 96.973a15.745 15.745 0 0 1 -3.971-18.766l.071-.147a14.533 14.533 0 0 0 -7.9 1.911l-34.861 20.029v18.247h49.115a15.734 15.734 0 0 0 -2.454-21.274z" fill="#ffe477"/><path d="m126.25 109.245-77.092-30.2a14.51 14.51 0 0 0 -4.647-.981l-.071.147a15.745 15.745 0 0 0 3.971 18.766 15.734 15.734 0 0 1 2.454 21.269h75.385z" fill="#ffb655"/></g></svg>