<svg height="512" viewBox="0 0 128 128" width="512" xmlns="http://www.w3.org/2000/svg"><g><g fill="#0d91bd"><path d="m107.118 75.337h-5.351l2.675-4.635a2.46 2.46 0 0 0 -.9-3.361l-1.421-.82a2.461 2.461 0 0 0 -3.361.9l-2.675 4.634-2.676-4.634a2.461 2.461 0 0 0 -3.361-.9l-1.42.82a2.461 2.461 0 0 0 -.9 3.361l2.672 4.635h-5.348a2.46 2.46 0 0 0 -2.461 2.46v1.64a2.461 2.461 0 0 0 2.461 2.463h5.348l-2.676 4.634a2.461 2.461 0 0 0 .9 3.361l1.42.82a2.461 2.461 0 0 0 3.361-.9l2.676-4.634 2.675 4.634a2.461 2.461 0 0 0 3.361.9l1.421-.82a2.46 2.46 0 0 0 .9-3.361l-2.671-4.634h5.351a2.46 2.46 0 0 0 2.46-2.461v-1.639a2.46 2.46 0 0 0 -2.46-2.463z"/><path d="m107.118 75.337h-5.351l2.675-4.635a2.46 2.46 0 0 0 -.9-3.361l-1.421-.82a2.461 2.461 0 0 0 -3.361.9l-2.675 4.634-2.676-4.634a2.461 2.461 0 0 0 -3.361-.9l-1.42.82a2.461 2.461 0 0 0 -.9 3.361l2.672 4.635h-5.348a2.46 2.46 0 0 0 -2.461 2.46v1.64a2.461 2.461 0 0 0 2.461 2.463h5.348l-2.676 4.634a2.461 2.461 0 0 0 .9 3.361l1.42.82a2.461 2.461 0 0 0 3.361-.9l2.676-4.634 2.675 4.634a2.461 2.461 0 0 0 3.361.9l1.421-.82a2.46 2.46 0 0 0 .9-3.361l-2.671-4.634h5.351a2.46 2.46 0 0 0 2.46-2.461v-1.639a2.46 2.46 0 0 0 -2.46-2.463z"/><path d="m75.033 101.42h-5.351l2.676-4.635a2.46 2.46 0 0 0 -.9-3.36l-1.422-.825a2.461 2.461 0 0 0 -3.361.9l-2.675 4.639-2.675-4.634a2.461 2.461 0 0 0 -3.361-.9l-1.421.821a2.46 2.46 0 0 0 -.9 3.36l2.676 4.635h-5.352a2.46 2.46 0 0 0 -2.46 2.46v1.64a2.46 2.46 0 0 0 2.46 2.461h5.351l-2.676 4.634a2.461 2.461 0 0 0 .9 3.361l1.421.82a2.461 2.461 0 0 0 3.361-.9l2.676-4.635 2.675 4.634a2.461 2.461 0 0 0 3.361.9l1.421-.82a2.461 2.461 0 0 0 .9-3.361l-2.676-4.634h5.351a2.46 2.46 0 0 0 2.46-2.461v-1.64a2.46 2.46 0 0 0 -2.459-2.46z"/><path d="m107.118 75.337h-5.351l2.675-4.635a2.46 2.46 0 0 0 -.9-3.361l-1.421-.82a2.461 2.461 0 0 0 -3.361.9l-2.675 4.634-2.676-4.634a2.461 2.461 0 0 0 -3.361-.9l-1.42.82a2.461 2.461 0 0 0 -.9 3.361l2.672 4.635h-5.348a2.46 2.46 0 0 0 -2.461 2.46v1.64a2.461 2.461 0 0 0 2.461 2.463h5.348l-2.676 4.634a2.461 2.461 0 0 0 .9 3.361l1.42.82a2.461 2.461 0 0 0 3.361-.9l2.676-4.634 2.675 4.634a2.461 2.461 0 0 0 3.361.9l1.421-.82a2.46 2.46 0 0 0 .9-3.361l-2.671-4.634h5.351a2.46 2.46 0 0 0 2.46-2.461v-1.639a2.46 2.46 0 0 0 -2.46-2.463z"/></g><path d="m111.419 39.655c-.167 0-.328.02-.494.025a29.275 29.275 0 0 0 -56.478-10.341 22.84 22.84 0 0 0 -36.747 10.369c-.35-.024-.7-.053-1.057-.053a14.891 14.891 0 1 0 0 29.781h70.764a2.45 2.45 0 0 1 1.221-2.1l1.42-.82a2.461 2.461 0 0 1 3.361.9l1.163 2.014h3.028l1.163-2.014a2.461 2.461 0 0 1 3.361-.9l1.421.82a2.452 2.452 0 0 1 1.221 2.1h6.656a14.891 14.891 0 0 0 0-29.781z" fill="#beebfa"/><path d="m42.948 75.337h-5.348l2.673-4.637a2.438 2.438 0 0 0 .32-1.266h-7.165l-1.513 2.62-1.515-2.618h-7.163a2.43 2.43 0 0 0 .321 1.266l2.675 4.635h-5.351a2.46 2.46 0 0 0 -2.46 2.46v1.64a2.46 2.46 0 0 0 2.46 2.461h5.351l-2.675 4.634a2.46 2.46 0 0 0 .9 3.361l1.421.82a2.461 2.461 0 0 0 3.361-.9l2.675-4.634 2.676 4.634a2.46 2.46 0 0 0 3.36.9l1.421-.82a2.461 2.461 0 0 0 .9-3.361l-2.672-4.632h5.351a2.461 2.461 0 0 0 2.461-2.461v-1.639a2.46 2.46 0 0 0 -2.464-2.463z" fill="#0d91bd"/><path d="m27.234 44.47a1.753 1.753 0 0 1 -1.669-2.278 14.536 14.536 0 0 1 13.919-10.192 1.75 1.75 0 0 1 0 3.5 11.048 11.048 0 0 0 -10.584 7.746 1.751 1.751 0 0 1 -1.666 1.224z" fill="#9ee2f8"/><path d="m100.926 41.59a1.75 1.75 0 0 1 -1.749-1.722 17.6 17.6 0 0 0 -17.521-17.244 1.75 1.75 0 0 1 0-3.5 21.119 21.119 0 0 1 21.021 20.688 1.752 1.752 0 0 1 -1.722 1.778z" fill="#9ee2f8"/></g></svg>