<?xml version="1.0"?>
<svg xmlns="http://www.w3.org/2000/svg" width="512" height="512" viewBox="0 0 128 128"><path d="M126.25,46.915l-5.407-5.406-18.671,18.67L87.723,45.73l14.106-14.107H117.34V23.977H104.069V10.706H96.422V26.217L82.316,40.323,67.867,25.874,86.537,7.2,81.131,1.8,64,18.926,46.869,1.8,41.463,7.2,60.086,25.827,45.637,40.276,31.577,26.217V10.706H23.931V23.977H10.66v7.646H26.171L40.23,45.683,25.781,60.132,7.156,41.509,1.75,46.915,18.88,64.046,1.75,81.177l5.406,5.406,18.671-18.67,14.45,14.449L26.171,96.468H10.66v7.647H23.931v13.271h7.646V101.875L45.683,87.769l14.45,14.449-18.67,18.671,5.406,5.407L64,109.166,81.131,126.3l5.406-5.407L67.823,102.175v-.008L82.269,87.721l14.153,14.154v15.511h7.647V104.115H117.34V96.468H101.829L87.676,82.315l14.445-14.446h.008l18.714,18.714,5.407-5.406L109.12,64.046ZM91.4,60.222H73.23l9.085-9.085ZM67.823,54.816V36.645l9.086,9.085ZM60.177,36.551V54.816l-9.133-9.133ZM54.77,60.222H36.505l9.133-9.132ZM36.6,67.869H54.77l-9.086,9.086Zm23.579,5.407V91.448L51.09,82.362Zm7.646,18.077V73.276l9.039,9.039ZM82.268,76.908,73.23,67.869H91.307Z" fill="#9ee2f8"/></svg>
