<svg height="512" viewBox="0 0 128 128" width="512" xmlns="http://www.w3.org/2000/svg"><g><path d="m48.48 44.917-14.709 7.733 2.809-16.379-11.9-11.6 16.445-2.389 7.355-14.903 7.355 14.903 16.445 2.389-11.9 11.6 2.809 16.379z" fill="#ffb655"/><path d="m17.007 86.112-9.43 4.957 1.801-10.499-7.628-7.436 10.542-1.532 4.715-9.553 4.714 9.553 10.542 1.532-7.628 7.436 1.801 10.499z" fill="#ffe477"/><path d="m84.716 107.126-25.669 13.495 4.903-28.583-20.767-20.243 28.699-4.17 12.834-26.006 12.835 26.006 28.699 4.17-20.767 20.243 4.903 28.583z" fill="#ffb655"/></g></svg>