<?xml version="1.0"?>
<svg xmlns="http://www.w3.org/2000/svg" width="512" height="512" viewBox="0 0 128 128"><g><path d="M112.411,77.836,126.25,64,112.411,50.158a15,15,0,0,1-4.394-10.607V19.98H88.446a15,15,0,0,1-10.607-4.394L64,1.747,50.161,15.586A15,15,0,0,1,39.554,19.98H19.983V39.551a15,15,0,0,1-4.394,10.607L1.75,64,15.589,77.836a15,15,0,0,1,4.394,10.607v19.571H39.554a15,15,0,0,1,10.607,4.394L64,126.247l13.839-13.839a15,15,0,0,1,10.607-4.394h19.571V88.443A15,15,0,0,1,112.411,77.836Z" fill="#ffb655"/><circle cx="64" cy="63.997" r="35.739" fill="#ffe477"/><path d="M89.738,65.747A1.749,1.749,0,0,1,87.988,64,24.016,24.016,0,0,0,64,40.008a1.75,1.75,0,0,1,0-3.5A27.52,27.52,0,0,1,91.488,64,1.749,1.749,0,0,1,89.738,65.747Z" fill="#ffb655"/></g></svg>
