<svg height="512" viewBox="0 0 128 128" width="512" xmlns="http://www.w3.org/2000/svg"><g><path d="m26.856 72.624c6.292-1.376 7.719-5.566 16.391-5.566 10.374 0 10.374 6 20.749 6s10.374-6 20.749-6c8.675 0 10.1 4.192 16.4 5.567a11.852 11.852 0 0 1 1.348-1.625l11-11-11-11a11.927 11.927 0 0 1 -3.493-8.444v-15.562h-15.562a11.93 11.93 0 0 1 -8.438-3.494l-11-11-11 11a11.931 11.931 0 0 1 -8.434 3.493h-15.566v15.563a11.927 11.927 0 0 1 -3.493 8.434l-11 11 11 11a11.977 11.977 0 0 1 1.349 1.634z" fill="#ffb655"/><path d="m43.247 67.058c10.374 0 10.374 6 20.749 6s10.374-6 20.749-6a18.046 18.046 0 0 1 6.487 1.059 28.417 28.417 0 1 0 -54.465 0 18.067 18.067 0 0 1 6.48-1.059z" fill="#ffe477"/><path d="m126.25 83.452c-10.376 0-10.376 6-20.752 6s-10.377-6-20.753-6-10.375 6-20.749 6-10.375-6-20.749-6-10.374 6-20.749 6-10.374-6-20.748-6v-16.394c10.374 0 10.374 6 20.748 6s10.375-6 20.749-6 10.374 6 20.749 6 10.374-6 20.749-6 10.376 6 20.753 6 10.376-6 20.752-6z" fill="#beebfa"/><path d="m126.25 99.845c-10.376 0-10.376 6-20.752 6s-10.377-6-20.753-6-10.375 6-20.749 6-10.375-6-20.749-6-10.374 6-20.749 6-10.374-6-20.748-6v-16.393c10.374 0 10.374 6 20.748 6s10.375-6 20.749-6 10.374 6 20.749 6 10.374-6 20.749-6 10.376 6 20.753 6 10.376-6 20.752-6z" fill="#9ee2f8"/><path d="m1.75 126.247v-26.4c10.374 0 10.374 6 20.748 6s10.375-6 20.749-6 10.374 6 20.749 6 10.374-6 20.749-6 10.376 6 20.753 6 10.376-6 20.752-6v26.4z" fill="#0d91bd"/><path d="m84.466 61.744a1.749 1.749 0 0 1 -1.75-1.75 18.737 18.737 0 0 0 -18.716-18.716 1.75 1.75 0 0 1 0-3.5 22.241 22.241 0 0 1 22.216 22.216 1.749 1.749 0 0 1 -1.75 1.75z" fill="#ffb655"/><path d="m111.75 16.625v19.597h9.937v-19.597h4.563v-5.871l-9.531-9.007-9.532 9.007v5.871z" fill="#09607d"/></g></svg>