<svg height="512" viewBox="0 0 128 128" width="512" xmlns="http://www.w3.org/2000/svg"><g><path d="m96 14.125a12.375 12.375 0 0 0 -24.75 0v56.875h24.75z" fill="#beebfa"/><path d="m71.252 54.335v-40.21a12.367 12.367 0 0 1 .472-3.353h-7.4a12 12 0 0 1 -8.485-3.515l-5.505-5.507-5.508 5.507a12 12 0 0 1 -8.485 3.515h-7.789v7.789a12 12 0 0 1 -3.514 8.485l-5.508 5.507 5.508 5.508a12 12 0 0 1 3.514 8.485v7.789h7.789a12 12 0 0 1 8.485 3.514l5.508 5.508 5.507-5.508a12 12 0 0 1 8.485-3.514z" fill="#ffb655"/><path d="m88 14.125a4.375 4.375 0 0 0 -8.75 0v56.875h8.75z" fill="#ffe477"/><path d="m96 79.869v-8.869h-24.748v8.869a24.843 24.843 0 1 0 24.75 0z" fill="#0d91bd"/><circle cx="83.627" cy="101.407" fill="#09607d" r="16.843"/><circle cx="50.334" cy="32.553" fill="#ffe477" r="14.344" transform="matrix(.23 -.973 .973 .23 7.087 74.061)"/></g></svg>