<svg height="512" viewBox="0 0 128 128" width="512" xmlns="http://www.w3.org/2000/svg"><g><path d="m33.768 69.436-23.731 23.731h18.575l-23.959 23.959 58.646-31.353h-25.218l16.336-16.337z" fill="#ffb655"/><path d="m90.958 69.436-16.764 16.764h13.121l-16.925 16.925 41.429-22.148h-17.815l11.541-11.541z" fill="#ffb655"/><path d="m111.419 39.655c-.167 0-.328.02-.494.025a29.275 29.275 0 0 0 -56.478-10.341 22.84 22.84 0 0 0 -36.747 10.369c-.35-.024-.7-.053-1.057-.053a14.891 14.891 0 1 0 0 29.781h94.778a14.891 14.891 0 0 0 0-29.781z" fill="#0d91bd"/><g fill="#09607d"><path d="m27.234 44.47a1.753 1.753 0 0 1 -1.669-2.278 14.536 14.536 0 0 1 13.919-10.192 1.75 1.75 0 0 1 0 3.5 11.048 11.048 0 0 0 -10.584 7.746 1.751 1.751 0 0 1 -1.666 1.224z"/><path d="m100.926 41.59a1.75 1.75 0 0 1 -1.749-1.722 17.6 17.6 0 0 0 -17.521-17.244 1.75 1.75 0 0 1 0-3.5 21.119 21.119 0 0 1 21.021 20.688 1.752 1.752 0 0 1 -1.722 1.778z"/></g></g></svg>