<svg height="512" viewBox="0 0 128 128" width="512" xmlns="http://www.w3.org/2000/svg"><g><path d="m42.07 40.04a1.751 1.751 0 0 1 -1.69 1.8c-1.74.05-3.53.08-5.32.08-2.19 0-8-.05-14.05-.6a14.06 14.06 0 0 0 -2.14-3.74 141.252 141.252 0 0 0 16.19.84c1.75 0 3.5-.03 5.21-.08a1.745 1.745 0 0 1 1.8 1.7z" fill="#d7d7d7"/><path d="m50.1 56.26a24.958 24.958 0 0 0 -2.44 3.65c-3.96.2-7.31.23-8.86.23-1.92 0-3.85-.03-5.73-.1a1.751 1.751 0 0 1 .12-3.5c1.84.07 3.73.1 5.61.1 4.23 0 8-.15 11.3-.38z" fill="#d7d7d7"/><path d="m68.76 17.51v10.9c0 .14 0 .27-.01.41a88.117 88.117 0 0 1 -11.13 1.4 1.752 1.752 0 0 0 .13 3.5.615.615 0 0 0 .13-.01 100.241 100.241 0 0 0 10.53-1.24 23.927 23.927 0 0 1 -6.66 12.87l-5.45 5.45c-.37.22-.73.46-1.08.7a23.983 23.983 0 0 0 -5.12 4.77c-3.3.23-7.07.38-11.3.38-1.88 0-3.77-.03-5.61-.1a1.751 1.751 0 0 0 -.12 3.5c1.88.07 3.81.1 5.73.1 1.55 0 4.9-.03 8.86-.23a26.179 26.179 0 0 0 -2.78 16.78l1.42 8.48a126.493 126.493 0 0 0 4.8 19.29l1.02 3.08h-4.5l-19.01-24.56c-2.6-3.37-5.37-6.6-8.17-9.81-2.7-3.1-6.19-9.11-1.21-16.14a17.046 17.046 0 0 0 1.78-15.71c6.05.55 11.86.6 14.05.6 1.79 0 3.58-.03 5.32-.08a1.751 1.751 0 0 0 -.11-3.5c-1.71.05-3.46.08-5.21.08a141.252 141.252 0 0 1 -16.19-.84 10.272 10.272 0 0 0 -.75-.88l-3.83-4.08-1.1-1.17a17.432 17.432 0 0 1 -1.34-1.64 15.979 15.979 0 0 1 -3.01-9.34v-2.96c0 2.9 13.42 5.25 29.96 5.25s29.96-2.35 29.96-5.25z" fill="#d7d7d7"/><path d="m68.75 28.82a22.222 22.222 0 0 1 -.34 3.65 100.241 100.241 0 0 1 -10.53 1.24.615.615 0 0 1 -.13.01 1.752 1.752 0 0 1 -.13-3.5 88.117 88.117 0 0 0 11.13-1.4z" fill="#d7d7d7"/><g fill="#bebebe"><path d="m68.759 17.508c0 2.9-13.413 5.247-29.958 5.247s-29.958-2.349-29.958-5.247 13.413-5.248 29.957-5.248 29.959 2.349 29.959 5.248z"/><path d="m33.857 66.957h-.052c-4.031-.117-7.829-.373-11.288-.759a1.75 1.75 0 1 1 .388-3.478c3.364.375 7.066.624 11 .739a1.75 1.75 0 0 1 -.051 3.5z"/><path d="m38.8 50.948c-2.473 0-4.939-.052-7.328-.156a1.75 1.75 0 1 1 .151-3.5c4.376.188 9.04.2 13.46.035a1.75 1.75 0 0 1 .132 3.5c-2.101.081-4.259.121-6.415.121z"/><path d="m36.6 34.769h-.03c-4.517-.077-8.782-.323-12.676-.732a1.75 1.75 0 1 1 .367-3.48c3.791.4 7.952.638 12.368.712a1.75 1.75 0 0 1 -.029 3.5z"/><path d="m59.51 47.58-2.46 2.46a1.758 1.758 0 0 0 1.26.89c5.35.82 7.51 1.74 8.33 2.22-1.69 1.01-7.25 2.43-16.54 3.11-3.3.23-7.07.38-11.3.38-1.88 0-3.77-.03-5.61-.1a1.751 1.751 0 0 0 -.12 3.5c1.88.07 3.81.1 5.73.1 1.55 0 4.9-.03 8.86-.23 9.61-.51 22.85-2.05 22.85-6.77 0-1.76-1.27-3.98-11-5.56z"/><path d="m42.07 40.04a1.751 1.751 0 0 1 -1.69 1.8c-1.74.05-3.53.08-5.32.08-2.19 0-8-.05-14.05-.6-8.58-.76-17.66-2.5-17.66-6.4 0-2.31 2.63-3.9 8.5-5.11a17.432 17.432 0 0 0 1.34 1.64l1.1 1.17a1.624 1.624 0 0 1 -.87.45c-3.82.72-5.5 1.45-6.2 1.87 1.36.81 5.27 1.9 11.65 2.64a141.252 141.252 0 0 0 16.19.84c1.75 0 3.5-.03 5.21-.08a1.745 1.745 0 0 1 1.8 1.7z"/><path d="m69.1 21.9a1.953 1.953 0 0 0 -.34-.03v3.54a18.319 18.319 0 0 1 5.45 1.71 20.213 20.213 0 0 1 -5.46 1.7 88.117 88.117 0 0 1 -11.13 1.4 1.752 1.752 0 0 0 .13 3.5.615.615 0 0 0 .13-.01 100.241 100.241 0 0 0 10.53-1.24c9.68-1.78 9.68-4.37 9.68-5.36 0-2.38-2.77-3.98-8.99-5.21z"/></g><path d="m1.75 107.543h124.5v8.197h-124.5z" fill="#0d91bd"/><path d="m76.406 82.723h42.75v24.82h-42.75z" fill="#09607d"/><path d="m100.849 90.723h10.307v8.82h-10.307z" fill="#ffe477"/><path d="m97.781 58.341-28.469 18.696v5.686h56.938v-5.686z" fill="#0d91bd"/><path d="m84.406 90.723h9.437v16.821h-9.437z" fill="#ffe477"/></g></svg>