<svg height="512" viewBox="0 0 128 128" width="512" xmlns="http://www.w3.org/2000/svg"><g><path d="m67.751 4.515-3.751-2.768-3.751 2.768a46.946 46.946 0 0 0 -18.367 45.86l8.9-4.025a31.335 31.335 0 0 1 26.338.233l8 3.792 1.074-.467a46.941 46.941 0 0 0 -18.443-45.393z" fill="#ffe477"/><path d="m60.249 4.515 3.751-2.768h-13.622a48.628 48.628 0 0 0 -48.628 48.628l3.385-1.975a31.337 31.337 0 0 1 28.313-1.687l8.434 3.667a46.946 46.946 0 0 1 18.367-45.865z" fill="#ffb655"/><path d="m77.622 1.747h-13.622l3.751 2.768a46.941 46.941 0 0 1 18.44 45.393l7.8-3.391a31.338 31.338 0 0 1 27.648 1.309l4.613 2.549a48.628 48.628 0 0 0 -48.63-48.628z" fill="#ffb655"/><path d="m53.436 126.243a15.58 15.58 0 0 1 -15.563-15.563v-5.825h10v5.825a5.564 5.564 0 0 0 11.127 0v-19h10v19a15.58 15.58 0 0 1 -15.564 15.563z" fill="#09607d"/><path d="m60 43.792v47.892h8v-47.813a31.41 31.41 0 0 0 -8-.079z" fill="#beebfa"/></g></svg>