<svg height="512" viewBox="0 0 128 128" width="512" xmlns="http://www.w3.org/2000/svg"><g><rect fill="#0d91bd" height="124.494" rx="5" width="83" x="22.5" y="1.75"/><path d="m30.5 9.75h67v90.244h-67z" fill="#ebe1dc"/><path d="m79.564 52.759c-.064 0-.127.007-.19.01a11.262 11.262 0 0 0 -21.727-3.978 8.786 8.786 0 0 0 -14.137 3.988c-.135-.009-.269-.02-.407-.02a5.729 5.729 0 0 0 0 11.457h36.461a5.729 5.729 0 0 0 0-11.457z" fill="#0d91bd"/><path d="m83.731 40.981a15.948 15.948 0 0 1 -15.045-21.232 15.947 15.947 0 0 0 -6.216 23.451 11.26 11.26 0 0 1 16.43 6.527 15.97 15.97 0 0 0 11.721-10.31 15.885 15.885 0 0 1 -6.89 1.564z" fill="#ffb655"/><path d="m71 118.244h-14a5.122 5.122 0 0 1 -5.122-5.122 5.122 5.122 0 0 1 5.122-5.122h14a5.122 5.122 0 0 1 5.122 5.122 5.122 5.122 0 0 1 -5.122 5.122z" fill="#09607d"/><path d="m93.5 114.872h-8.75a1.75 1.75 0 0 1 0-3.5h8.75a1.75 1.75 0 0 1 0 3.5z" fill="#ebe1dc"/><path d="m43.25 114.872h-8.75a1.75 1.75 0 0 1 0-3.5h8.75a1.75 1.75 0 1 1 0 3.5z" fill="#ebe1dc"/><path d="m49.657 92.57h-11.281a1.751 1.751 0 0 1 -1.75-1.75v-4.945a1.749 1.749 0 0 1 .915-1.538l10.366-5.628v-3.736h-9.531a1.75 1.75 0 1 1 0-3.5h11.281a1.75 1.75 0 0 1 1.75 1.75v6.527a1.749 1.749 0 0 1 -.915 1.538l-10.366 5.628v2.154h9.531a1.75 1.75 0 0 1 0 3.5z" fill="#0d91bd"/><path d="m67.944 92.57h-11.281a1.75 1.75 0 0 1 0-3.5h9.531v-5.3h-9.531a1.75 1.75 0 0 1 -1.75-1.75v-8.8a1.749 1.749 0 0 1 1.75-1.75h11.281a1.75 1.75 0 0 1 0 3.5h-9.531v5.3h9.531a1.75 1.75 0 0 1 1.75 1.75v8.8a1.75 1.75 0 0 1 -1.75 1.75z" fill="#0d91bd"/><g fill="#c8beb9"><path d="m89.624 74.973h-13.124a1.75 1.75 0 0 1 0-3.5h13.124a1.75 1.75 0 0 1 0 3.5z"/><path d="m86.25 83.771h-6.376a1.75 1.75 0 0 1 0-3.5h6.376a1.75 1.75 0 0 1 0 3.5z"/><path d="m89.624 92.57h-13.124a1.75 1.75 0 0 1 0-3.5h13.124a1.75 1.75 0 0 1 0 3.5z"/></g></g></svg>