<svg height="512" viewBox="0 0 128 128" width="512" xmlns="http://www.w3.org/2000/svg"><g><path d="m109.438 68h-107.688v-8h107.826a8.572 8.572 0 0 0 8.651-7.8 8.383 8.383 0 0 0 -8.355-8.948h-.188a8.389 8.389 0 0 0 -7.947 5.731 3.746 3.746 0 0 1 -3.52 2.644h-.542a3.792 3.792 0 0 1 -3.6-4.959 16.405 16.405 0 0 1 15.609-11.418h.188a16.394 16.394 0 0 1 16.372 16.1c.156 9.155-7.644 16.65-16.806 16.65z" fill="#beebfa"/><path d="m1.75 77.232v8h13.25a4 4 0 0 0 4-4 4 4 0 0 0 -4-4z" fill="#beebfa"/><path d="m70.625 77.232h-35.875a4 4 0 0 0 -4 4 4 4 0 0 0 4 4h35.875a6.383 6.383 0 0 1 6.321 7.214 6.524 6.524 0 0 1 -6.546 5.536h-.277a6.384 6.384 0 0 1 -5.873-3.9 3.9 3.9 0 0 0 -3.549-2.479h-.467a3.788 3.788 0 0 0 -3.534 5.149 14.4 14.4 0 0 0 13.423 9.23h.081a14.651 14.651 0 0 0 14.778-13.651 14.391 14.391 0 0 0 -14.357-15.099z" fill="#9ee2f8"/><path d="m1.75 42.768v8h31.75a4 4 0 0 0 4-4 4 4 0 0 0 -4-4z" fill="#beebfa"/><path d="m70.625 22.018h-.5a14.4 14.4 0 0 0 -13.425 9.231 3.787 3.787 0 0 0 3.534 5.144h.467a3.9 3.9 0 0 0 3.549-2.479 6.385 6.385 0 0 1 5.873-3.9h.5a6.383 6.383 0 0 1 6.321 7.214 6.525 6.525 0 0 1 -6.544 5.54h-17.15a4 4 0 0 0 -4 4 4 4 0 0 0 4 4h16.958a14.651 14.651 0 0 0 14.774-13.65 14.391 14.391 0 0 0 -14.357-15.1z" fill="#9ee2f8"/></g></svg>