<svg id="Layer_1" enable-background="new 0 0 128 128" viewBox="0 0 128 128" xmlns="http://www.w3.org/2000/svg"><path d="m63.1 68.5-23.3-24.6h18.8c1 0 1.8-.8 1.8-1.8s-.8-1.8-1.8-1.8h-18.8l21.4-22.6c.6-.7.6-1.8-.2-2.5-.7-.6-1.7-.6-2.4.1l-24.1 25.7s-.5.5-.5 1.2.4 1.2.5 1.2l26.1 27.6c.6.7 1.7.8 2.5.2.7-.6.8-1.7.2-2.5-.1-.1-.2-.1-.2-.2z" fill="#bebebe"/><path d="m24.6 12.9h11.1v102.3h-11.1z" fill="#ebe1dc"/><path d="m1.8 115.1h56.9v11.1h-56.9z" fill="#0d91bd"/><path d="m38.3 12.9h-16.2c-3.1 0-5.6-2.5-5.6-5.6 0-3.1 2.5-5.6 5.6-5.6h16.1c3.1 0 5.6 2.5 5.6 5.6 0 3.1-2.5 5.6-5.5 5.6z" fill="#bebebe"/><path d="m63.9 74.6c-2.9 0-5.3-2.4-5.3-5.3v-54.3c0-2.9 2.4-5.3 5.3-5.3 2.9 0 5.3 2.4 5.3 5.3v54.4c-.1 2.9-2.4 5.2-5.3 5.2z" fill="#0d91bd"/><path d="m126.3 50.6-57.2 15v-46.8l57.2 15z" fill="#ffb655"/><g fill="#ffe477"><path d="m84.1 61.6 8-2.1v-34.7l-8-2.1z"/><path d="m105.4 56 8-2.1v-23.5l-8-2.1z"/></g></svg>