<svg height="512" viewBox="0 0 128 128" width="512" xmlns="http://www.w3.org/2000/svg"><g><path d="m83.054 126.25h-38.109v-5.781l10.008-5.781h18.093l10.008 5.781z" fill="#0d91bd"/><circle cx="64" cy="46.964" fill="#ffb655" r="12.123"/><path d="m64 51.087a4.123 4.123 0 1 1 4.123-4.123 4.128 4.128 0 0 1 -4.123 4.123z" fill="#ffe477"/><g fill="#0d91bd"><path d="m51.877 46.964c0-.154.018-.3.023-.457a23.152 23.152 0 0 1 -10.712-.284 6.644 6.644 0 0 0 -7.087 2.5l-9.443 12.94a6.375 6.375 0 0 0 8.337 9.278l24.179-13.96a12.108 12.108 0 0 1 -5.297-10.017z"/><path d="m64 34.841a12.056 12.056 0 0 1 6.436 1.859 23.155 23.155 0 0 1 5.612-9.125 6.646 6.646 0 0 0 1.377-7.389l-6.484-14.642a6.374 6.374 0 0 0 -12.2 2.58v27.932a12.055 12.055 0 0 1 5.259-1.215z"/><path d="m100.267 61.827-24.19-13.966a12.112 12.112 0 0 1 -6.416 9.819 23.146 23.146 0 0 1 5.1 9.41 6.646 6.646 0 0 0 5.71 4.888l15.929 1.708a6.375 6.375 0 0 0 6.2-3.151 6.374 6.374 0 0 0 -2.333-8.708z"/></g><path d="m64 59.087a12.054 12.054 0 0 1 -5.386-1.274l-3.661 56.875h18.093l-3.66-56.875a12.054 12.054 0 0 1 -5.386 1.274z" fill="#d7d7d7"/><path d="m56.209 95.188h15.582l-.772-12h-14.038z" fill="#0d91bd"/></g></svg>