<svg height="512" viewBox="0 0 128 128" width="512" xmlns="http://www.w3.org/2000/svg"><g><path d="m47.31 57.314c.12 0 .236.014.355.018a21.073 21.073 0 0 1 40.654-7.443 16.439 16.439 0 0 1 26.451 7.464c.253-.018.505-.039.762-.039a10.719 10.719 0 0 1 0 21.437h-68.222a10.719 10.719 0 0 1 0-21.437z" fill="#beebfa"/><path d="m11.471 40.552c.233 0 .461.019.69.035a14.91 14.91 0 0 1 23.989-6.769 19.108 19.108 0 0 1 36.463 3.151 21.013 21.013 0 0 0 -24.948 20.363c-.119 0-.235-.018-.355-.018a10.664 10.664 0 0 0 -7.073 2.68h-28.766a9.721 9.721 0 0 1 0-19.442z" fill="#9ee2f8"/><path d="m72.613 36.969a21.1 21.1 0 0 1 15.706 12.92 16.416 16.416 0 0 1 13.552-3.789v-2.831a7.184 7.184 0 0 1 2.105-5.08l6.627-6.628-6.627-6.627a7.184 7.184 0 0 1 -2.105-5.08v-9.373h-9.371a7.183 7.183 0 0 1 -5.079-2.1l-6.63-6.632-6.628 6.628a7.184 7.184 0 0 1 -5.08 2.1h-9.373v9.373a7.173 7.173 0 0 1 -.515 2.661 19.132 19.132 0 0 1 13.418 14.458z" fill="#ffb655"/><path d="m72.613 36.969a21.094 21.094 0 0 1 14.541 10.473 17.11 17.11 0 1 0 -22.26-22.2 19.128 19.128 0 0 1 7.719 11.727z" fill="#ffe477"/><path d="m89.907 33.311a1.749 1.749 0 0 1 -1.75-1.75 7.375 7.375 0 0 0 -7.366-7.361 1.75 1.75 0 0 1 0-3.5 10.879 10.879 0 0 1 10.866 10.861 1.75 1.75 0 0 1 -1.75 1.75z" fill="#ffb655"/><path d="m55.25 99h-53.5a1.75 1.75 0 0 1 0-3.5h53.5a3.375 3.375 0 0 0 0-6.75h-.625a3.379 3.379 0 0 0 -3.375 3.375 1.75 1.75 0 0 1 -3.5 0 6.883 6.883 0 0 1 6.875-6.875h.625a6.875 6.875 0 0 1 0 13.75z" fill="#beebfa"/><path d="m89.081 108.376h-87.331a1.75 1.75 0 0 1 0-3.5h87.331a3.375 3.375 0 0 0 0-6.75h-.625a3.379 3.379 0 0 0 -3.375 3.375 1.75 1.75 0 0 1 -3.5 0 6.883 6.883 0 0 1 6.875-6.875h.625a6.875 6.875 0 0 1 0 13.75z" fill="#9ee2f8"/><path d="m105.29 128h-.625a6.883 6.883 0 0 1 -6.875-6.875 1.75 1.75 0 0 1 3.5 0 3.379 3.379 0 0 0 3.375 3.375h.625a3.375 3.375 0 0 0 0-6.75h-103.54a1.75 1.75 0 0 1 0-3.5h103.54a6.875 6.875 0 0 1 0 13.75z" fill="#beebfa"/></g></svg>